<svg width="44" height="45" viewBox="0 0 44 45" fill="none" xmlns="http://www.w3.org/2000/svg">
<rect y="0.5" width="44" height="44" rx="8" fill="#029FAE"/>
<path d="M12.75 13.75L14.83 14.11L15.793 25.583C15.83 26.0345 16.0358 26.4554 16.3695 26.7618C16.7031 27.0682 17.14 27.2375 17.593 27.236H28.503C28.9367 27.2365 29.3561 27.0803 29.6838 26.7963C30.0116 26.5122 30.2258 26.1194 30.287 25.69L31.237 19.132C31.2623 18.9576 31.253 18.7799 31.2096 18.6091C31.1662 18.4383 31.0896 18.2777 30.9841 18.1365C30.8786 17.9954 30.7463 17.8764 30.5947 17.7864C30.4432 17.6964 30.2754 17.6371 30.101 17.612C30.037 17.605 15.164 17.6 15.164 17.6" stroke="white" stroke-width="1.5" stroke-linecap="round" stroke-linejoin="round"/>
<path d="M24.125 21.295H26.898" stroke="white" stroke-width="1.5" stroke-linecap="round" stroke-linejoin="round"/>
<path fill-rule="evenodd" clip-rule="evenodd" d="M17.154 30.703C17.2273 30.6999 17.3006 30.7116 17.3692 30.7375C17.4379 30.7634 17.5007 30.8029 17.5537 30.8537C17.6067 30.9045 17.6488 30.9655 17.6777 31.033C17.7065 31.1005 17.7213 31.1731 17.7213 31.2465C17.7213 31.3199 17.7065 31.3926 17.6777 31.4601C17.6488 31.5276 17.6067 31.5886 17.5537 31.6393C17.5007 31.6901 17.4379 31.7296 17.3692 31.7555C17.3006 31.7814 17.2273 31.7932 17.154 31.79C17.0139 31.784 16.8815 31.7241 16.7845 31.6228C16.6875 31.5216 16.6333 31.3868 16.6333 31.2465C16.6333 31.1063 16.6875 30.9715 16.7845 30.8702C16.8815 30.7689 17.0139 30.709 17.154 30.703Z" fill="white" stroke="white" stroke-width="1.5" stroke-linecap="round" stroke-linejoin="round"/>
<path fill-rule="evenodd" clip-rule="evenodd" d="M28.435 30.703C28.5795 30.703 28.7181 30.7604 28.8204 30.8626C28.9226 30.9648 28.98 31.1035 28.98 31.248C28.98 31.3925 28.9226 31.5312 28.8204 31.6334C28.7181 31.7356 28.5795 31.793 28.435 31.793C28.2904 31.793 28.1518 31.7356 28.0496 31.6334C27.9474 31.5312 27.89 31.3925 27.89 31.248C27.89 31.1035 27.9474 30.9648 28.0496 30.8626C28.1518 30.7604 28.2904 30.703 28.435 30.703Z" fill="white" stroke="white" stroke-width="1.5" stroke-linecap="round" stroke-linejoin="round"/>
</svg>
